<svg width="30" height="31" viewBox="0 0 30 31" fill="none" xmlns="http://www.w3.org/2000/svg">
<circle opacity="0.12" cx="15" cy="15.5" r="12.6" fill="#C9C7D0"/>
<path fill-rule="evenodd" clip-rule="evenodd" d="M18.75 12.05C18.4739 11.7739 18.0262 11.7739 17.75 12.05L15 14.8L12.25 12.05C11.9739 11.7739 11.5261 11.7739 11.25 12.05C10.9738 12.3261 10.9738 12.7739 11.25 13.05L14 15.8L11.25 18.55C10.9738 18.8262 10.9738 19.2739 11.25 19.55C11.5261 19.8262 11.9739 19.8262 12.25 19.55L15 16.8L17.75 19.55C18.0262 19.8262 18.4739 19.8262 18.75 19.55C19.0262 19.2739 19.0262 18.8262 18.75 18.55L16 15.8L18.75 13.05C19.0262 12.7739 19.0262 12.3261 18.75 12.05Z" fill="white"/>
</svg>
