<svg width="17" height="16" viewBox="0 0 17 16" fill="none" xmlns="http://www.w3.org/2000/svg">
<path d="M13.1667 7.33333V13.6C13.1667 13.7061 13.1245 13.8078 13.0495 13.8828C12.9745 13.9579 12.8728 14 12.7667 14H4.23333C4.12725 14 4.02551 13.9579 3.95049 13.8828C3.87548 13.8078 3.83333 13.7061 3.83333 13.6V7.33333M7.16667 11.3333V7.33333M9.83333 11.3333V7.33333M14.5 4.66667H11.1667M2.5 4.66667H5.83333M5.83333 4.66667V2.4C5.83333 2.29391 5.87548 2.19217 5.95049 2.11716C6.0255 2.04214 6.12725 2 6.23333 2H10.7667C10.8728 2 10.9745 2.04214 11.0495 2.11716C11.1245 2.19217 11.1667 2.29391 11.1667 2.4V4.66667M5.83333 4.66667H11.1667" stroke="#C9C7D0" stroke-linecap="round" stroke-linejoin="round"/>
</svg>
