<svg width="24" height="24" viewBox="0 0 24 24" fill="none" xmlns="http://www.w3.org/2000/svg">
<path d="M10 22C14.4183 22 18 18.4183 18 14C18 9.58172 14.4183 6 10 6C5.58172 6 2 9.58172 2 14C2 18.4183 5.58172 22 10 22Z" fill="#3DDAB4"/>
<path d="M15.792 15.4635C19.5058 15.4635 22.5165 12.4528 22.5165 8.739C22.5165 5.02516 19.5058 2.0145 15.792 2.0145C12.0782 2.0145 9.0675 5.02516 9.0675 8.739C9.0675 12.4528 12.0782 15.4635 15.792 15.4635Z" fill="#F5BC00"/>
<path d="M2.03497 22H9.95447L5.46097 17.7745L2.03497 22Z" fill="#3DDAB4"/>
<path d="M10 6C9.8805 6 9.7645 6.0125 9.646 6.018C9.2765 6.8505 9.0675 7.77 9.0675 8.7395C9.0675 12.4535 12.078 15.464 15.792 15.464C16.534 15.464 17.2455 15.339 17.913 15.1175C17.9645 14.751 18 14.38 18 14C18 9.5815 14.4185 6 10 6Z" fill="#00B569"/>
<path d="M22.4875 2.0145H15.8305L19.6075 5.5665L22.4875 2.0145Z" fill="#F5BC00"/>
</svg>
