<svg width="24" height="24" viewBox="0 0 24 24" fill="none" xmlns="http://www.w3.org/2000/svg">
<path d="M18 20H18.5C19.086 19.414 19.414 19.086 20 18.5V16H18V20Z" fill="#F5BC00"/>
<path d="M18 8H18.5C19.086 7.414 19.414 7.086 20 6.5V4H18V8Z" fill="#F5BC00"/>
<path d="M18 14H18.5C19.086 13.414 19.414 13.086 20 12.5V10H18V14Z" fill="#F5BC00"/>
<path d="M18.5 2.5H4V21.5H18.5V2.5Z" fill="#6C19FF"/>
<path d="M18.5 4H17.5415V8H18.5V4Z" fill="#2100C4"/>
<path d="M18.5 10H17.5415V14H18.5V10Z" fill="#2100C4"/>
<path d="M18.5 16H17.5415V20H18.5V16Z" fill="#2100C4"/>
<path d="M13.0665 12.0015L8.93297 11.9985C8.65697 11.9985 8.43347 11.7745 8.43347 11.498C8.43347 11.222 8.65747 10.9985 8.93347 10.9985C8.93347 10.9985 8.93347 10.9985 8.93397 10.9985L13.067 11.0015C13.343 11.0015 13.5665 11.2255 13.5665 11.502C13.5665 11.778 13.3425 12.0015 13.0665 12.0015Z" fill="#7DEBF5"/>
<path d="M12.5115 13H9.48901C8.42101 13 7.51201 13.8065 7.34351 14.902C8.25601 15.883 9.55451 16.5 11 16.5C12.4455 16.5 13.744 15.883 14.657 14.902C14.488 13.8065 13.579 13 12.5115 13Z" fill="#3DD9EB"/>
<path d="M11 13.4495C9.88047 13.4495 8.93797 12.613 8.80447 11.5015L8.69597 10.597C8.52997 9.2155 9.60847 8 11 8C12.3915 8 13.47 9.2155 13.304 10.597L13.1955 11.5015C13.062 12.613 12.1195 13.4495 11 13.4495Z" fill="#7DEBF5"/>
</svg>
