<svg width="119" height="34" viewBox="0 0 119 34" fill="none" xmlns="http://www.w3.org/2000/svg">
<rect x="0.5" y="0.5" width="118" height="32.437" rx="5.5" stroke="#454451"/>
<path fill-rule="evenodd" clip-rule="evenodd" d="M33.437 16.7185C33.437 23.1904 28.1904 28.437 21.7185 28.437C15.2465 28.437 10 23.1904 10 16.7185C10 10.2465 15.2465 5 21.7185 5C23.8288 5 25.8088 5.55782 27.5191 6.53406C27.8207 6.70621 28.114 6.89137 28.398 7.08878C28.8303 7.38916 29.2413 7.71789 29.6285 8.07228C31.9691 10.2148 33.437 13.2952 33.437 16.7185ZM14.7764 25.4423C14.7168 25.5602 14.5832 26.0454 14.8361 26.0908C15.1922 26.1548 15.6888 24.9869 16.1449 23.9143C16.5296 23.0097 16.8854 22.1729 17.1038 22.1999C17.5813 22.2589 21.9288 22.6988 22.057 22.023C22.1174 21.7052 21.1257 21.6406 20.0793 21.5724C18.901 21.4956 17.6534 21.4143 17.7603 20.9619C17.8638 20.5238 19.0059 20.7276 20.1551 20.9326C21.3112 21.1389 22.4744 21.3464 22.5941 20.9029C22.7202 20.436 21.5482 20.3142 20.4403 20.1991C19.4502 20.0963 18.5113 19.9988 18.5958 19.6649C18.6826 19.3217 19.6262 19.5058 20.6157 19.6987C21.6659 19.9036 22.7678 20.1185 22.9522 19.7239C23.1394 19.3232 22.1848 19.1642 21.2653 19.0111C20.4259 18.8713 19.6157 18.7364 19.7296 18.4269C19.849 18.1027 20.7591 18.3532 21.6691 18.6038C22.5792 18.8543 23.4893 19.1049 23.6086 18.7806C23.7288 18.4542 22.7902 18.2323 21.9122 18.0247C21.0462 17.82 20.2392 17.6292 20.5651 17.3658C20.903 17.0926 21.747 17.3819 22.519 17.6465C23.2467 17.8959 23.9106 18.1234 24.0264 17.8374C24.1605 17.5062 23.2853 17.2191 22.541 16.975C21.9603 16.7845 21.4593 16.6202 21.5796 16.4815C21.7558 16.2784 22.4523 16.5464 23.1498 16.8149C23.8698 17.092 24.591 17.3695 24.7425 17.13C24.9083 16.8679 24.061 16.5332 23.3365 16.2469C22.757 16.0179 22.256 15.8199 22.4151 15.7151C22.576 15.6091 23.1228 15.7889 23.6922 15.9762C24.3897 16.2057 25.1214 16.4464 25.2199 16.1867C25.3194 15.9248 24.6457 15.681 24.0781 15.4757C23.6237 15.3113 23.2373 15.1714 23.3699 15.0666C23.5023 14.962 23.9753 15.0778 24.4867 15.2031C25.1281 15.3601 25.8297 15.532 25.9957 15.3024C26.1548 15.0825 25.5678 14.896 25.0302 14.7252C24.5591 14.5755 24.1257 14.4379 24.2651 14.3002C24.4041 14.1629 24.8537 14.2814 25.3247 14.4055C25.8649 14.5478 26.4331 14.6975 26.5925 14.4771C26.7464 14.2643 26.2337 14.1142 25.742 13.9702C25.2801 13.835 24.8367 13.7051 24.9812 13.5338C25.1315 13.3557 25.6145 13.4466 26.0876 13.5357C26.5542 13.6235 27.0111 13.7095 27.1296 13.5338C27.2547 13.3484 26.7732 13.2602 26.3124 13.1758C25.8941 13.0991 25.4928 13.0256 25.578 12.8853C25.6606 12.7493 26.0991 12.789 26.5591 12.8307C27.0959 12.8794 27.6621 12.9307 27.7264 12.7085C27.7877 12.4963 27.2655 12.4556 26.7841 12.418C26.3291 12.3825 25.9104 12.3498 26.0554 12.1779C26.2056 11.9998 26.6887 12.016 27.1313 12.0308C27.5679 12.0454 27.9651 12.0588 27.9651 11.8831C27.9651 11.7063 27.607 11.7063 27.2564 11.7063C26.9058 11.7063 26.5627 11.7063 26.5925 11.5294C26.6223 11.3531 27.0674 11.3232 27.5063 11.2939C27.9477 11.2643 28.3828 11.2352 28.3828 11.0578C28.3828 10.8723 27.9889 10.8976 27.6229 10.921C27.2909 10.9423 26.9819 10.9622 27.0102 10.822C27.0383 10.6832 27.384 10.6359 27.7357 10.5878C28.1309 10.5337 28.5337 10.4786 28.5022 10.2914C28.4702 10.1017 28.1293 10.2002 27.8292 10.2869C27.5697 10.3619 27.3406 10.4281 27.3683 10.2914C27.3972 10.1489 27.7048 10.0478 28.0083 9.948C28.3327 9.84134 28.6524 9.73626 28.6215 9.58396C28.5895 9.42566 28.3337 9.52241 28.1037 9.60939C27.9054 9.68436 27.7264 9.75209 27.7264 9.64292C27.7264 9.53283 27.9735 9.38421 28.2248 9.23302C28.5119 9.06035 28.8045 8.88435 28.7409 8.75862C28.6764 8.63129 28.4554 8.79615 28.2657 8.93767C28.104 9.05824 27.9651 9.16187 27.9651 9.05338C27.9651 8.93839 28.1496 8.80939 28.3248 8.68687C28.5088 8.55813 28.6827 8.43656 28.6215 8.34594C28.5587 8.2528 28.413 8.33953 28.298 8.40805C28.1946 8.46964 28.1159 8.51652 28.1441 8.4049C28.158 8.35003 28.188 8.26325 28.2229 8.16238C28.3381 7.82971 28.5063 7.34375 28.3231 7.34375C28.1833 7.34375 28.1254 7.66742 28.0774 7.93556C28.0435 8.12516 28.0145 8.287 27.9651 8.287C27.916 8.287 27.9073 8.19722 27.8974 8.09563C27.8833 7.95025 27.8669 7.78067 27.7264 7.81537C27.597 7.84733 27.6605 8.15642 27.7172 8.43282C27.7652 8.66634 27.8084 8.87653 27.7264 8.87653C27.6382 8.87653 27.6079 8.71936 27.5786 8.5668C27.5482 8.40948 27.5189 8.25707 27.428 8.287C27.3392 8.31622 27.3678 8.57724 27.3974 8.84743C27.4275 9.12227 27.4586 9.4066 27.3683 9.46606C27.2842 9.52146 27.2659 9.36859 27.2455 9.19706C27.2224 9.00356 27.1965 8.78632 27.0699 8.81757C26.9519 8.84673 27.009 9.14986 27.068 9.46309C27.1283 9.78322 27.1906 10.1139 27.0699 10.1735C26.9569 10.2293 26.9241 9.95468 26.8893 9.66254C26.8506 9.33774 26.8093 8.99131 26.6522 9.05338C26.503 9.11234 26.5925 9.46605 26.682 9.81977C26.7715 10.1735 26.861 10.5272 26.7119 10.5862C26.5626 10.6451 26.5343 10.3944 26.5053 10.1364C26.4762 9.87852 26.4463 9.61345 26.2941 9.64292C26.1425 9.67227 26.2158 10.0525 26.2909 10.4414C26.3665 10.8335 26.4439 11.2344 26.2941 11.2936C26.1507 11.3503 26.1176 11.0667 26.0821 10.7632C26.0438 10.4352 26.0027 10.0839 25.8167 10.1145C25.6297 10.1453 25.7031 10.6262 25.7734 11.0871C25.8378 11.5088 25.8996 11.9139 25.757 11.9421C25.6144 11.9703 25.5672 11.6753 25.5178 11.3661C25.4637 11.0282 25.4069 10.6733 25.2199 10.7041C25.0423 10.7333 25.129 11.1688 25.2178 11.6147C25.308 12.0676 25.4004 12.5312 25.2199 12.5906C25.0475 12.6473 24.9997 12.2532 24.9497 11.8423C24.8959 11.3997 24.8398 10.9377 24.6232 10.9988C24.4066 11.06 24.4948 11.6439 24.58 12.2086C24.6592 12.7332 24.7359 13.2412 24.5635 13.298C24.4022 13.3511 24.3741 12.9736 24.3428 12.5533C24.3047 12.0407 24.2619 11.4646 23.9667 11.5294C23.6832 11.5916 23.7821 12.2615 23.8773 12.9062C23.9624 13.4831 24.0446 14.0398 23.8474 14.1233C23.6557 14.2045 23.6022 13.7767 23.5428 13.3013C23.4728 12.7407 23.3945 12.1141 23.0716 12.1779C22.7572 12.24 22.8899 12.94 23.0162 13.6059C23.1296 14.2042 23.2378 14.775 23.0119 14.8308C22.7791 14.8883 22.7024 14.343 22.6226 13.776C22.5388 13.1802 22.4516 12.5604 22.1764 12.5906C21.9001 12.6209 22.0186 13.3533 22.1339 14.0655C22.2427 14.7376 22.3485 15.3917 22.1167 15.4203C21.8912 15.4482 21.8388 14.8971 21.7833 14.3141C21.7214 13.663 21.6558 12.9721 21.3409 13.0032C21.0251 13.0344 21.1271 13.9244 21.2224 14.7553C21.3072 15.4943 21.3866 16.1867 21.1619 16.1867C20.9473 16.1867 20.8894 15.6864 20.8257 15.1356C20.7477 14.4611 20.661 13.7107 20.2667 13.7107C19.8785 13.7107 20.0515 14.629 20.2153 15.4982C20.3536 16.2322 20.4853 16.9311 20.2667 17.012C20.0811 17.0808 19.9665 16.5397 19.8369 15.9274C19.6695 15.1362 19.4769 14.2262 19.0732 14.3592C18.81 14.4458 18.9901 15.4379 19.163 16.3909C19.327 17.2942 19.4845 18.1624 19.2522 18.1911C19.0537 18.2156 18.949 17.6131 18.8278 16.9158C18.6737 16.029 18.493 14.9887 18.0587 14.8897C17.6356 14.7933 17.8869 16.0118 18.1255 17.1684C18.3244 18.1327 18.5144 19.0539 18.2974 19.1343C18.1369 19.1938 17.9608 18.5434 17.7602 17.8031C17.4923 16.814 17.1809 15.6644 16.8055 15.833C16.5493 15.948 16.7876 17.0963 17.0231 18.2313C17.2589 19.3675 17.4919 20.4902 17.2232 20.5492C16.9744 20.6038 16.7512 19.7729 16.5121 18.8827C16.235 17.8513 15.9366 16.7403 15.5522 16.8352C15.1168 16.9427 15.586 18.707 15.967 20.1397C16.2126 21.063 16.4215 21.8486 16.328 21.9641C16.144 22.1915 15.356 24.0677 14.9781 24.9677C14.8661 25.2344 14.79 25.4154 14.7764 25.4423Z" fill="#7B798F"/>
<path d="M44.2363 10.0973V11.6293C44.1968 11.6441 44.145 11.6565 44.0809 11.6663C44.0167 11.6811 43.9452 11.6885 43.8662 11.6885C43.7133 11.6885 43.6022 11.6614 43.5332 11.6071C43.469 11.5479 43.437 11.4517 43.437 11.3185V7.4995C43.437 7.41562 43.4592 7.35147 43.5036 7.30707C43.5529 7.25773 43.6195 7.22072 43.7034 7.19605C43.8563 7.14177 44.0389 7.10477 44.2511 7.08503C44.4632 7.0653 44.6631 7.05543 44.8506 7.05543C45.492 7.05543 45.9657 7.19112 46.2716 7.46249C46.5824 7.73387 46.7379 8.10146 46.7379 8.56526C46.7379 9.02907 46.5824 9.40159 46.2716 9.68284C45.9657 9.95914 45.5068 10.0973 44.895 10.0973H44.2363ZM44.8432 9.4534C45.1836 9.4534 45.4501 9.37939 45.6425 9.23137C45.8399 9.08334 45.9385 8.86131 45.9385 8.56526C45.9385 8.26922 45.8448 8.05212 45.6573 7.91396C45.4747 7.77581 45.2108 7.70673 44.8654 7.70673C44.7519 7.70673 44.6384 7.71166 44.5249 7.72153C44.4164 7.7314 44.3177 7.74373 44.2289 7.75854V9.4534H44.8432Z" fill="#7B798F"/>
<path d="M50.7547 9.91227C50.7547 10.1935 50.7128 10.4476 50.6289 10.6746C50.545 10.9016 50.4266 11.094 50.2736 11.2519C50.1256 11.4098 49.9431 11.5331 49.726 11.6219C49.5089 11.7058 49.2671 11.7478 49.0006 11.7478C48.7342 11.7478 48.4924 11.7058 48.2753 11.6219C48.0582 11.5331 47.8732 11.4098 47.7202 11.2519C47.5722 11.094 47.4563 10.9016 47.3724 10.6746C47.2885 10.4476 47.2466 10.1935 47.2466 9.91227C47.2466 9.63103 47.2885 9.37692 47.3724 9.14995C47.4563 8.92298 47.5747 8.73055 47.7277 8.57266C47.8806 8.41477 48.0656 8.29389 48.2827 8.21001C48.4998 8.12119 48.7391 8.07679 49.0006 8.07679C49.2622 8.07679 49.5015 8.12119 49.7186 8.21001C49.9357 8.29389 50.1207 8.41724 50.2736 8.58006C50.4266 8.73796 50.545 8.93039 50.6289 9.15735C50.7128 9.37939 50.7547 9.63103 50.7547 9.91227ZM49.0006 8.69848C48.7046 8.69848 48.4702 8.80457 48.2975 9.01673C48.1248 9.2289 48.0385 9.52741 48.0385 9.91227C48.0385 10.2971 48.1224 10.5956 48.2901 10.8078C48.4579 11.015 48.6947 11.1187 49.0006 11.1187C49.3066 11.1187 49.5434 11.015 49.7112 10.8078C49.8789 10.5956 49.9628 10.2971 49.9628 9.91227C49.9628 9.53235 49.8765 9.2363 49.7038 9.02413C49.536 8.80703 49.3016 8.69848 49.0006 8.69848Z" fill="#7B798F"/>
<path d="M53.8089 9.24617C53.7497 9.46327 53.6856 9.68284 53.6165 9.90487C53.5523 10.122 53.4857 10.3341 53.4166 10.5414C53.3525 10.7486 53.2884 10.941 53.2242 11.1187C53.165 11.2963 53.1107 11.4517 53.0614 11.5849C53.012 11.6195 52.9528 11.6466 52.8838 11.6663C52.8147 11.6861 52.7283 11.6959 52.6247 11.6959C52.5112 11.6959 52.4101 11.6787 52.3213 11.6441C52.2325 11.6096 52.1733 11.5553 52.1436 11.4813C52.0844 11.3629 52.0154 11.1729 51.9364 10.9114C51.8575 10.6499 51.7785 10.3637 51.6996 10.0529C51.6206 9.74204 51.5442 9.42873 51.4701 9.11295C51.3961 8.79716 51.3369 8.52086 51.2925 8.28402C51.332 8.23961 51.3863 8.20014 51.4553 8.1656C51.5294 8.12613 51.6108 8.10639 51.6996 8.10639C51.9216 8.10639 52.0548 8.23221 52.0992 8.48385C52.1436 8.73549 52.1905 8.98959 52.2399 9.24617C52.2941 9.50274 52.3459 9.74451 52.3953 9.97148C52.4446 10.1935 52.489 10.3933 52.5285 10.571C52.5729 10.7437 52.605 10.8744 52.6247 10.9632H52.6543C52.679 10.8744 52.716 10.7461 52.7653 10.5784C52.8196 10.4057 52.8788 10.2108 52.943 9.99368C53.0121 9.77165 53.0861 9.53481 53.165 9.28317C53.244 9.0266 53.3254 8.77249 53.4092 8.52086C53.5227 8.45178 53.6584 8.41724 53.8163 8.41724C53.9298 8.41724 54.0235 8.43698 54.0976 8.47645C54.1765 8.51592 54.2283 8.57266 54.253 8.64667C54.3319 8.89338 54.4084 9.13762 54.4824 9.37939C54.5564 9.61622 54.623 9.83826 54.6822 10.0455C54.7464 10.2527 54.8007 10.4353 54.8451 10.5932C54.8944 10.7511 54.9314 10.8744 54.9561 10.9632H54.9931C55.0918 10.5389 55.1954 10.0899 55.3039 9.61623C55.4125 9.14255 55.5038 8.66888 55.5778 8.1952C55.6271 8.17053 55.6814 8.1508 55.7406 8.136C55.7998 8.11626 55.859 8.10639 55.9182 8.10639C56.0268 8.10639 56.1131 8.13106 56.1773 8.1804C56.2464 8.22974 56.2809 8.30869 56.2809 8.41724C56.2809 8.48138 56.2661 8.58993 56.2365 8.74289C56.2069 8.89585 56.1649 9.07594 56.1107 9.28317C56.0613 9.48547 56.0046 9.70257 55.9404 9.93447C55.8812 10.1614 55.8196 10.381 55.7554 10.5932C55.6962 10.8053 55.637 11.0002 55.5778 11.1779C55.5186 11.3555 55.4692 11.4912 55.4298 11.5849C55.3903 11.6145 55.3311 11.6392 55.2521 11.6589C55.1732 11.6836 55.0844 11.6959 54.9857 11.6959C54.7242 11.6959 54.5712 11.6343 54.5268 11.5109C54.4824 11.3925 54.4306 11.2469 54.3714 11.0743C54.3122 10.9016 54.2505 10.7165 54.1864 10.5192C54.1222 10.3169 54.0581 10.1072 53.9939 9.89007C53.9298 9.67297 53.8681 9.45833 53.8089 9.24617Z" fill="#7B798F"/>
<path d="M57.615 10.3045C57.6841 10.5858 57.8173 10.7955 58.0147 10.9336C58.217 11.0668 58.4735 11.1335 58.7844 11.1335C58.9916 11.1335 59.1816 11.1014 59.3543 11.0372C59.527 10.9731 59.6651 10.904 59.7687 10.83C59.9069 10.909 59.976 11.02 59.976 11.1631C59.976 11.2469 59.9439 11.3259 59.8798 11.3999C59.8156 11.469 59.7268 11.5307 59.6133 11.5849C59.5048 11.6343 59.374 11.6737 59.2211 11.7033C59.073 11.733 58.9127 11.7478 58.74 11.7478C58.4538 11.7478 58.1923 11.7083 57.9555 11.6293C57.7236 11.5504 57.5237 11.432 57.356 11.2741C57.1882 11.1162 57.0575 10.9213 56.9637 10.6894C56.8749 10.4575 56.8305 10.1886 56.8305 9.88267C56.8305 9.58662 56.8749 9.32758 56.9637 9.10555C57.0525 8.87858 57.1734 8.69108 57.3264 8.54306C57.4793 8.3901 57.6594 8.27415 57.8666 8.1952C58.0739 8.11626 58.2959 8.07679 58.5327 8.07679C58.7696 8.07679 58.9842 8.11626 59.1766 8.1952C59.374 8.26922 59.5418 8.3753 59.6799 8.51345C59.823 8.64667 59.9316 8.80703 60.0056 8.99453C60.0845 9.18202 60.124 9.38679 60.124 9.60882C60.124 9.73218 60.0944 9.82346 60.0352 9.88267C59.976 9.93694 59.8896 9.97395 59.7761 9.99368L57.615 10.3045ZM58.5327 8.67628C58.2614 8.67628 58.0344 8.76756 57.8518 8.95012C57.6742 9.13268 57.5805 9.39419 57.5706 9.73464L59.3913 9.4756C59.3715 9.25357 59.2901 9.06607 59.147 8.91312C59.004 8.75523 58.7992 8.67628 58.5327 8.67628Z" fill="#7B798F"/>
<path d="M61.6882 11.6293C61.6536 11.6441 61.6043 11.6565 61.5402 11.6663C61.4809 11.6811 61.4143 11.6885 61.3403 11.6885C61.1972 11.6885 61.0912 11.6614 61.0221 11.6071C60.953 11.5529 60.9185 11.4616 60.9185 11.3333V8.90571C60.9185 8.78236 60.9431 8.68368 60.9925 8.60967C61.0418 8.53072 61.1208 8.45671 61.2293 8.38763C61.3724 8.29882 61.555 8.22481 61.777 8.1656C61.999 8.10639 62.2433 8.07679 62.5097 8.07679C62.9439 8.07679 63.161 8.20014 63.161 8.44684C63.161 8.50605 63.1511 8.56279 63.1314 8.61707C63.1117 8.66641 63.0895 8.71082 63.0648 8.75029C63.0155 8.74042 62.9538 8.73055 62.8798 8.72069C62.8058 8.71082 62.7268 8.70588 62.6429 8.70588C62.4456 8.70588 62.2655 8.72809 62.1026 8.77249C61.9398 8.81197 61.8017 8.86377 61.6882 8.92792V11.6293Z" fill="#7B798F"/>
<path d="M64.3151 10.3045C64.3841 10.5858 64.5174 10.7955 64.7147 10.9336C64.917 11.0668 65.1736 11.1335 65.4844 11.1335C65.6917 11.1335 65.8816 11.1014 66.0543 11.0372C66.227 10.9731 66.3652 10.904 66.4688 10.83C66.607 10.909 66.676 11.02 66.676 11.1631C66.676 11.2469 66.644 11.3259 66.5798 11.3999C66.5157 11.469 66.4269 11.5307 66.3134 11.5849C66.2048 11.6343 66.0741 11.6737 65.9211 11.7033C65.7731 11.733 65.6127 11.7478 65.44 11.7478C65.1539 11.7478 64.8924 11.7083 64.6555 11.6293C64.4236 11.5504 64.2238 11.432 64.056 11.2741C63.8883 11.1162 63.7575 10.9213 63.6638 10.6894C63.575 10.4575 63.5305 10.1886 63.5305 9.88267C63.5305 9.58662 63.575 9.32758 63.6638 9.10555C63.7526 8.87858 63.8735 8.69108 64.0264 8.54306C64.1794 8.3901 64.3595 8.27415 64.5667 8.1952C64.7739 8.11626 64.996 8.07679 65.2328 8.07679C65.4696 8.07679 65.6843 8.11626 65.8767 8.1952C66.0741 8.26922 66.2418 8.3753 66.38 8.51345C66.5231 8.64667 66.6316 8.80703 66.7056 8.99453C66.7846 9.18202 66.8241 9.38679 66.8241 9.60882C66.8241 9.73218 66.7945 9.82346 66.7352 9.88267C66.676 9.93694 66.5897 9.97395 66.4762 9.99368L64.3151 10.3045ZM65.2328 8.67628C64.9614 8.67628 64.7345 8.76756 64.5519 8.95012C64.3743 9.13268 64.2805 9.39419 64.2707 9.73464L66.0913 9.4756C66.0716 9.25357 65.9902 9.06607 65.8471 8.91312C65.704 8.75523 65.4993 8.67628 65.2328 8.67628Z" fill="#7B798F"/>
<path d="M69.1728 8.07679C69.3208 8.07679 69.4589 8.09406 69.5872 8.12859C69.7204 8.1582 69.8364 8.19767 69.9351 8.24701V6.84079C69.9696 6.83093 70.019 6.81859 70.0831 6.80379C70.1472 6.78899 70.2163 6.78159 70.2903 6.78159C70.4334 6.78159 70.5395 6.80872 70.6086 6.863C70.6777 6.91727 70.7122 7.00855 70.7122 7.13684V11.015C70.7122 11.1187 70.69 11.205 70.6456 11.2741C70.6012 11.3382 70.5321 11.3999 70.4384 11.4591C70.3249 11.5331 70.1695 11.5997 69.9721 11.6589C69.7797 11.7182 69.5576 11.7478 69.306 11.7478C69.0247 11.7478 68.7682 11.7132 68.5363 11.6441C68.3044 11.5701 68.107 11.4591 67.9442 11.3111C67.7813 11.1581 67.6555 10.9682 67.5667 10.7412C67.4779 10.5093 67.4335 10.2379 67.4335 9.92707C67.4335 9.60636 67.4779 9.33005 67.5667 9.09814C67.6605 8.86131 67.7863 8.66888 67.9442 8.52086C68.1021 8.3679 68.2846 8.25688 68.4919 8.1878C68.704 8.11379 68.931 8.07679 69.1728 8.07679ZM69.9425 8.89831C69.8586 8.84404 69.7599 8.79716 69.6464 8.75769C69.533 8.71822 69.4071 8.69848 69.269 8.69848C69.121 8.69848 68.9828 8.72069 68.8545 8.76509C68.7312 8.8095 68.6226 8.88351 68.5289 8.98713C68.4351 9.08581 68.3611 9.2141 68.3068 9.37199C68.2526 9.52494 68.2254 9.71244 68.2254 9.93447C68.2254 10.3489 68.3216 10.6499 68.5141 10.8374C68.7114 11.0249 68.9729 11.1187 69.2986 11.1187C69.4466 11.1187 69.57 11.1039 69.6686 11.0743C69.7723 11.0397 69.8635 11.0002 69.9425 10.9558V8.89831Z" fill="#7B798F"/>
<path d="M74.8777 8.07679C75.1096 8.07679 75.3267 8.11626 75.529 8.1952C75.7313 8.26922 75.9064 8.3827 76.0544 8.53566C76.2025 8.68368 76.3184 8.87364 76.4023 9.10555C76.4862 9.33251 76.5281 9.59896 76.5281 9.90487C76.5281 10.2157 76.4837 10.4871 76.3949 10.719C76.311 10.9509 76.1901 11.1433 76.0322 11.2963C75.8744 11.4443 75.6844 11.5578 75.4624 11.6367C75.2453 11.7108 75.0035 11.7478 74.737 11.7478C74.4706 11.7478 74.2338 11.7157 74.0265 11.6515C73.8242 11.5874 73.6589 11.5134 73.5307 11.4295C73.427 11.3604 73.353 11.2914 73.3086 11.2223C73.2642 11.1532 73.242 11.0644 73.242 10.9558V6.84079C73.2765 6.83093 73.3259 6.81859 73.39 6.80379C73.4542 6.78899 73.5233 6.78159 73.5973 6.78159C73.7404 6.78159 73.844 6.80872 73.9081 6.863C73.9772 6.91727 74.0117 7.00855 74.0117 7.13684V8.30622C74.1203 8.24701 74.2461 8.1952 74.3892 8.1508C74.5323 8.10146 74.6951 8.07679 74.8777 8.07679ZM74.7518 8.69848C74.594 8.69848 74.4533 8.72562 74.33 8.7799C74.2066 8.82924 74.1005 8.88845 74.0117 8.95752V10.9262C74.0808 10.9756 74.177 11.02 74.3004 11.0594C74.4237 11.0989 74.5668 11.1187 74.7296 11.1187C75.0306 11.1187 75.2749 11.02 75.4624 10.8226C75.6498 10.6252 75.7436 10.3193 75.7436 9.90487C75.7436 9.48547 75.6498 9.17956 75.4624 8.98713C75.2798 8.7947 75.043 8.69848 74.7518 8.69848Z" fill="#7B798F"/>
<path d="M77.9334 10.8374C77.8101 10.5956 77.6596 10.2527 77.4819 9.80866C77.3043 9.36459 77.1316 8.86131 76.9639 8.29882C77.0083 8.24455 77.0675 8.20014 77.1415 8.1656C77.2155 8.12613 77.2944 8.10639 77.3783 8.10639C77.4869 8.10639 77.5757 8.13353 77.6448 8.1878C77.7138 8.23714 77.7706 8.32596 77.815 8.45424C77.9482 8.85391 78.0864 9.24863 78.2295 9.63843C78.3725 10.0233 78.5304 10.423 78.7031 10.8374H78.7327C78.8067 10.6795 78.8808 10.4945 78.9548 10.2823C79.0337 10.0702 79.1102 9.84566 79.1842 9.60882C79.2582 9.37199 79.3273 9.13268 79.3914 8.89091C79.4556 8.64421 79.5123 8.40984 79.5617 8.1878C79.611 8.16313 79.6603 8.1434 79.7097 8.12859C79.764 8.11379 79.8256 8.10639 79.8947 8.10639C80.0033 8.10639 80.0945 8.13353 80.1686 8.1878C80.2426 8.23714 80.2796 8.31609 80.2796 8.42464C80.2796 8.55293 80.245 8.75029 80.176 9.01673C80.1118 9.27824 80.0255 9.56935 79.9169 9.89007C79.8084 10.2058 79.685 10.5266 79.5469 10.8522C79.4087 11.1779 79.2705 11.4665 79.1324 11.7182C78.8857 12.1524 78.6612 12.4829 78.4589 12.7099C78.2615 12.9369 78.074 13.0504 77.8964 13.0504C77.7582 13.0504 77.6472 13.0109 77.5634 12.9319C77.4844 12.8579 77.4351 12.7642 77.4153 12.6507C77.4943 12.5816 77.5806 12.4977 77.6744 12.3991C77.7681 12.3004 77.8619 12.1943 77.9556 12.0808C78.0494 11.9673 78.1382 11.8489 78.2221 11.7256C78.3059 11.6071 78.3775 11.4912 78.4367 11.3777C78.3528 11.353 78.2714 11.3062 78.1924 11.2371C78.1135 11.1631 78.0272 11.0298 77.9334 10.8374Z" fill="#7B798F"/>
<path d="M52.6415 25.0666C52.6415 25.3083 52.5782 25.5098 52.4515 25.671C52.3364 25.8207 52.1522 25.9588 51.8989 26.0855C51.5996 26.2466 51.1851 26.379 50.6555 26.4827C50.1259 26.5863 49.5848 26.6381 49.0322 26.6381C48.2148 26.6381 47.4607 26.5345 46.7699 26.3272C46.0907 26.1085 45.5035 25.7746 45.0085 25.3256C44.5134 24.8766 44.1277 24.3067 43.8514 23.6159C43.5751 22.9252 43.437 22.1078 43.437 21.1637C43.437 20.2427 43.5809 19.4368 43.8687 18.746C44.1565 18.0552 44.5422 17.4853 45.0257 17.0363C45.5208 16.5758 46.0964 16.2304 46.7527 16.0002C47.4204 15.7699 48.1285 15.6548 48.8768 15.6548C49.3718 15.6548 49.8266 15.7008 50.2411 15.7929C50.6555 15.8735 51.0124 15.9829 51.3118 16.1211C51.6111 16.2592 51.8414 16.4204 52.0025 16.6046C52.1637 16.7773 52.2443 16.9615 52.2443 17.1572C52.2443 17.3529 52.1925 17.5256 52.0889 17.6753C51.9853 17.8134 51.8586 17.9228 51.709 18.0034C51.3981 17.8077 51.0297 17.6235 50.6037 17.4508C50.1778 17.2781 49.6424 17.1918 48.9977 17.1918C48.4796 17.1918 47.9961 17.2781 47.5471 17.4508C47.0981 17.6235 46.7066 17.8768 46.3727 18.2106C46.0504 18.5445 45.7971 18.959 45.6129 19.454C45.4287 19.9491 45.3366 20.519 45.3366 21.1637C45.3366 21.843 45.4287 22.4359 45.6129 22.9424C45.8086 23.4375 46.0676 23.8462 46.39 24.1686C46.7239 24.4909 47.1153 24.7327 47.5643 24.8939C48.0248 25.0435 48.5199 25.1184 49.0495 25.1184C49.4179 25.1184 49.7633 25.0896 50.0856 25.032C50.408 24.963 50.6555 24.8824 50.8282 24.7903V22.0272H48.4451C48.3875 21.9581 48.3357 21.8602 48.2896 21.7336C48.2551 21.5954 48.2378 21.4573 48.2378 21.3191C48.2378 21.0543 48.2954 20.8586 48.4105 20.732C48.5372 20.6053 48.7041 20.542 48.9113 20.542H51.8126C52.0544 20.542 52.2501 20.6168 52.3997 20.7665C52.5609 20.9047 52.6415 21.1061 52.6415 21.3709V25.0666Z" fill="#7B798F"/>
<path d="M56.7596 26.3618C56.679 26.3963 56.5639 26.4251 56.4142 26.4481C56.276 26.4827 56.1206 26.4999 55.9479 26.4999C55.614 26.4999 55.3665 26.4366 55.2053 26.31C55.0442 26.1833 54.9636 25.9703 54.9636 25.671V20.0067C54.9636 19.7188 55.0211 19.4886 55.1363 19.3159C55.2514 19.1317 55.4356 18.959 55.6889 18.7978C56.0227 18.5906 56.4487 18.4179 56.9668 18.2797C57.4849 18.1416 58.0548 18.0725 58.6765 18.0725C59.6896 18.0725 60.1962 18.3603 60.1962 18.936C60.1962 19.0741 60.1731 19.2065 60.1271 19.3332C60.081 19.4483 60.0292 19.5519 59.9717 19.644C59.8565 19.621 59.7126 19.5979 59.5399 19.5749C59.3672 19.5519 59.183 19.5404 58.9873 19.5404C58.5268 19.5404 58.1066 19.5922 57.7267 19.6958C57.3467 19.7879 57.0244 19.9088 56.7596 20.0585V26.3618Z" fill="#7B798F"/>
<path d="M64.597 25.2393C65 25.2393 65.3511 25.199 65.6505 25.1184C65.9498 25.0378 66.1628 24.9514 66.2894 24.8593V22.6661L64.4071 22.8561C63.8775 22.9137 63.4803 23.0345 63.2155 23.2188C62.9507 23.3914 62.8183 23.662 62.8183 24.0304C62.8183 24.4103 62.9622 24.7097 63.25 24.9284C63.5378 25.1357 63.9868 25.2393 64.597 25.2393ZM64.5625 18.0725C65.6332 18.0725 66.4851 18.3085 67.1183 18.7805C67.7516 19.241 68.0682 19.9721 68.0682 20.9737V24.9975C68.0682 25.2623 68.0048 25.4695 67.8782 25.6192C67.7631 25.7573 67.6019 25.8897 67.3947 26.0164C67.0953 26.1891 66.7096 26.3387 66.2376 26.4654C65.7656 26.592 65.2187 26.6554 64.597 26.6554C63.4803 26.6554 62.6053 26.4366 61.9721 25.9991C61.3504 25.5616 61.0395 24.9169 61.0395 24.065C61.0395 23.3051 61.2813 22.7237 61.7649 22.3207C62.2599 21.9178 62.968 21.6703 63.889 21.5782L66.2894 21.3364V20.9565C66.2894 20.4499 66.1225 20.0815 65.7886 19.8512C65.4662 19.621 65.0115 19.5058 64.4243 19.5058C63.9638 19.5058 63.5206 19.5692 63.0946 19.6958C62.6686 19.8224 62.2887 19.9664 61.9548 20.1275C61.8397 20.0354 61.7418 19.9261 61.6612 19.7994C61.5806 19.6613 61.5404 19.5116 61.5404 19.3504C61.5404 19.1547 61.5864 18.9935 61.6785 18.8669C61.7821 18.7402 61.9375 18.6309 62.1448 18.5388C62.4671 18.3776 62.8356 18.2625 63.25 18.1934C63.6645 18.1128 64.102 18.0725 64.5625 18.0725Z" fill="#7B798F"/>
<path d="M74.0044 18.0725C74.3498 18.0725 74.6721 18.1128 74.9714 18.1934C75.2823 18.2625 75.5528 18.3546 75.7831 18.4697V15.1885C75.8637 15.1655 75.9788 15.1367 76.1285 15.1022C76.2782 15.0676 76.4393 15.0504 76.612 15.0504C76.9459 15.0504 77.1934 15.1137 77.3546 15.2403C77.5158 15.367 77.5964 15.5799 77.5964 15.8793V24.9284C77.5964 25.1702 77.5446 25.3717 77.441 25.5328C77.3373 25.6825 77.1762 25.8264 76.9574 25.9646C76.6926 26.1373 76.33 26.2927 75.8695 26.4309C75.4205 26.569 74.9024 26.6381 74.3152 26.6381C73.659 26.6381 73.0603 26.5575 72.5192 26.3963C71.9781 26.2236 71.5176 25.9646 71.1377 25.6192C70.7577 25.2623 70.4641 24.819 70.2569 24.2895C70.0497 23.7483 69.9461 23.1151 69.9461 22.3898C69.9461 21.6415 70.0497 20.9968 70.2569 20.4557C70.4757 19.903 70.7692 19.454 71.1377 19.1086C71.5061 18.7517 71.932 18.4927 72.4156 18.3315C72.9106 18.1588 73.4402 18.0725 74.0044 18.0725ZM75.8004 19.9894C75.6047 19.8627 75.3744 19.7534 75.1096 19.6613C74.8448 19.5692 74.5512 19.5231 74.2289 19.5231C73.8835 19.5231 73.5611 19.5749 73.2618 19.6785C72.974 19.7822 72.7207 19.9548 72.5019 20.1966C72.2832 20.4269 72.1105 20.7262 71.9839 21.0946C71.8572 21.4515 71.7939 21.889 71.7939 22.4071C71.7939 23.3742 72.0184 24.0765 72.4674 24.514C72.9279 24.9514 73.5381 25.1702 74.2979 25.1702C74.6433 25.1702 74.9312 25.1357 75.1614 25.0666C75.4032 24.986 75.6162 24.8939 75.8004 24.7903V19.9894Z" fill="#7B798F"/>
<path d="M80.0075 18.3315C80.0881 18.3085 80.2032 18.2855 80.3529 18.2625C80.5025 18.2279 80.6637 18.2106 80.8364 18.2106C81.1703 18.2106 81.4121 18.274 81.5617 18.4006C81.7229 18.5272 81.8035 18.746 81.8035 19.0568V23.3224C81.8035 23.9901 81.9762 24.4679 82.3216 24.7557C82.6785 25.032 83.1678 25.1702 83.7895 25.1702C84.1924 25.1702 84.5321 25.1299 84.8084 25.0493C85.0847 24.9687 85.3034 24.8824 85.4646 24.7903V18.3315C85.5567 18.3085 85.6718 18.2855 85.81 18.2625C85.9596 18.2279 86.1208 18.2106 86.2935 18.2106C86.6274 18.2106 86.8749 18.274 87.0361 18.4006C87.1973 18.5272 87.2779 18.746 87.2779 19.0568V24.8766C87.2779 25.1299 87.2376 25.3371 87.157 25.4983C87.0764 25.6595 86.9152 25.8149 86.6735 25.9646C86.3741 26.1373 85.9769 26.2927 85.4819 26.4309C84.9983 26.569 84.4284 26.6381 83.7722 26.6381C82.5864 26.6381 81.6596 26.379 80.9918 25.861C80.3356 25.3314 80.0075 24.4967 80.0075 23.3569V18.3315Z" fill="#7B798F"/>
<path d="M92.6934 25.2393C93.0964 25.2393 93.4475 25.199 93.7469 25.1184C94.0462 25.0378 94.2592 24.9514 94.3858 24.8593V22.6661L92.5035 22.8561C91.9739 22.9137 91.5767 23.0345 91.3119 23.2188C91.0471 23.3914 90.9147 23.662 90.9147 24.0304C90.9147 24.4103 91.0586 24.7097 91.3464 24.9284C91.6343 25.1357 92.0833 25.2393 92.6934 25.2393ZM92.6589 18.0725C93.7296 18.0725 94.5816 18.3085 95.2148 18.7805C95.848 19.241 96.1646 19.9721 96.1646 20.9737V24.9975C96.1646 25.2623 96.1013 25.4695 95.9746 25.6192C95.8595 25.7573 95.6983 25.8897 95.4911 26.0164C95.1917 26.1891 94.8061 26.3387 94.334 26.4654C93.862 26.592 93.3151 26.6554 92.6934 26.6554C91.5767 26.6554 90.7017 26.4366 90.0685 25.9991C89.4468 25.5616 89.136 24.9169 89.136 24.065C89.136 23.3051 89.3777 22.7237 89.8613 22.3207C90.3563 21.9178 91.0644 21.6703 91.9854 21.5782L94.3858 21.3364V20.9565C94.3858 20.4499 94.2189 20.0815 93.885 19.8512C93.5627 19.621 93.1079 19.5058 92.5207 19.5058C92.0602 19.5058 91.617 19.5692 91.191 19.6958C90.765 19.8224 90.3851 19.9664 90.0512 20.1275C89.9361 20.0354 89.8382 19.9261 89.7576 19.7994C89.6771 19.6613 89.6368 19.5116 89.6368 19.3504C89.6368 19.1547 89.6828 18.9935 89.7749 18.8669C89.8785 18.7402 90.034 18.6309 90.2412 18.5388C90.5636 18.3776 90.932 18.2625 91.3464 18.1934C91.7609 18.1128 92.1984 18.0725 92.6589 18.0725Z" fill="#7B798F"/>
<path d="M99.5795 26.4999C99.2456 26.4999 98.9981 26.4366 98.8369 26.31C98.6757 26.1833 98.5951 25.9703 98.5951 25.671V15.1885C98.6757 15.1655 98.7908 15.1367 98.9405 15.1022C99.0902 15.0676 99.2513 15.0504 99.424 15.0504C99.7579 15.0504 100.005 15.1137 100.167 15.2403C100.328 15.367 100.408 15.5799 100.408 15.8793V26.3618C100.316 26.3963 100.195 26.4251 100.046 26.4481C99.9076 26.4827 99.7521 26.4999 99.5795 26.4999Z" fill="#7B798F"/>
</svg>
