<svg width="50" height="50" viewBox="0 0 50 50" fill="none" xmlns="http://www.w3.org/2000/svg">
<path fill-rule="evenodd" clip-rule="evenodd" d="M45 25C45 36.0457 36.0457 45 25 45C13.9543 45 5 36.0457 5 25C5 13.9543 13.9543 5 25 5C28.6017 5 31.981 5.95204 34.9 7.61818C35.4147 7.91199 35.9152 8.22801 36.4 8.56493C37.1377 9.07759 37.8392 9.63864 38.5 10.2435C42.4948 13.9001 45 19.1575 45 25ZM13.1518 39.8889C13.05 40.0902 12.8219 40.9182 13.2536 40.9957C13.8613 41.1049 14.7089 39.1117 15.4874 37.2811C16.1439 35.7372 16.7512 34.3091 17.124 34.3551C17.9388 34.4557 25.3587 35.2065 25.5776 34.0532C25.6806 33.5108 23.9881 33.4005 22.2022 33.2841C20.1913 33.1531 18.062 33.0143 18.2443 32.2422C18.4209 31.4945 20.3703 31.8423 22.3316 32.1922C24.3048 32.5443 26.29 32.8984 26.4943 32.1415C26.7094 31.3446 24.7092 31.1368 22.8183 30.9404C21.1285 30.7649 19.5261 30.5984 19.6703 30.0286C19.8185 29.4429 21.4289 29.757 23.1177 30.0863C24.9101 30.4359 26.7908 30.8027 27.1054 30.1292C27.4249 29.4454 25.7957 29.1741 24.2263 28.9127C22.7938 28.6741 21.411 28.4439 21.6054 27.9157C21.8091 27.3623 23.3624 27.7899 24.9156 28.2176C26.4688 28.6452 28.0221 29.0728 28.2258 28.5194C28.4309 27.9622 26.8289 27.5835 25.3304 27.2293C23.8524 26.8799 22.475 26.5543 23.0314 26.1046C23.6081 25.6385 25.0485 26.1322 26.3661 26.5838C27.6081 27.0095 28.741 27.3978 28.9387 26.9095C29.1676 26.3444 27.6738 25.8544 26.4036 25.4377C25.4125 25.1126 24.5574 24.8322 24.7628 24.5954C25.0635 24.2488 26.2521 24.7062 27.4427 25.1644C28.6715 25.6373 29.9023 26.111 30.1609 25.7022C30.4439 25.255 28.9978 24.6836 27.7614 24.195C26.7722 23.8041 25.9171 23.4663 26.1887 23.2874C26.4634 23.1065 27.3965 23.4134 28.3684 23.7331C29.5588 24.1247 30.8075 24.5355 30.9758 24.0923C31.1455 23.6453 29.9957 23.2293 29.0269 22.8788C28.2514 22.5982 27.5919 22.3596 27.8184 22.1806C28.0443 22.0021 28.8516 22.1998 29.7244 22.4136C30.819 22.6816 32.0165 22.9749 32.2998 22.5831C32.5713 22.2077 31.5696 21.8895 30.6519 21.5979C29.8478 21.3425 29.1083 21.1076 29.3461 20.8726C29.5833 20.6383 30.3508 20.8405 31.1545 21.0523C32.0765 21.2952 33.0463 21.5507 33.3183 21.1745C33.5809 20.8113 32.706 20.5551 31.8667 20.3094C31.0785 20.0786 30.3217 19.857 30.5683 19.5646C30.8247 19.2607 31.6491 19.4158 32.4566 19.5678C33.2529 19.7176 34.0327 19.8644 34.235 19.5646C34.4485 19.2482 33.6267 19.0976 32.8403 18.9535C32.1263 18.8227 31.4415 18.6972 31.5869 18.4579C31.7279 18.2257 32.4762 18.2935 33.2613 18.3647C34.1775 18.4477 35.1438 18.5353 35.2535 18.156C35.3582 17.7939 34.467 17.7244 33.6453 17.6602C32.8687 17.5996 32.1542 17.5438 32.4017 17.2505C32.6581 16.9465 33.4825 16.9741 34.238 16.9995C34.983 17.0244 35.6609 17.0471 35.6609 16.7474C35.6609 16.4455 35.0498 16.4455 34.4514 16.4455C33.8531 16.4455 33.2674 16.4455 33.3183 16.1437C33.3691 15.8427 34.1288 15.7918 34.8779 15.7417C35.6312 15.6912 36.3739 15.6415 36.3739 15.3388C36.3739 15.0222 35.7017 15.0653 35.0769 15.1054C34.5104 15.1417 33.9829 15.1756 34.0313 14.9363C34.0793 14.6994 34.6692 14.6187 35.2695 14.5366C35.944 14.4443 36.6315 14.3502 36.5776 14.0308C36.523 13.7071 35.9412 13.8752 35.4291 14.0231C34.9861 14.1511 34.5952 14.2641 34.6424 14.0308C34.6916 13.7876 35.2167 13.615 35.7347 13.4447C36.2884 13.2627 36.8339 13.0833 36.7813 12.8234C36.7266 12.5532 36.29 12.7183 35.8975 12.8668C35.5591 12.9947 35.2535 13.1103 35.2535 12.924C35.2535 12.7361 35.6752 12.4825 36.1042 12.2244C36.5942 11.9297 37.0936 11.6293 36.985 11.4148C36.875 11.1975 36.4977 11.4788 36.1739 11.7203C35.898 11.9261 35.6609 12.103 35.6609 11.9178C35.6609 11.7216 35.9758 11.5014 36.2748 11.2923C36.589 11.0726 36.8856 10.8651 36.7813 10.7105C36.674 10.5515 36.4255 10.6995 36.2291 10.8164C36.0526 10.9216 35.9183 11.0016 35.9665 10.8111C35.9902 10.7174 36.0414 10.5693 36.101 10.3972C36.2976 9.82938 36.5846 9 36.272 9C36.0334 9 35.9345 9.55241 35.8526 10.01C35.7947 10.3336 35.7453 10.6098 35.6609 10.6098C35.5771 10.6098 35.5623 10.4566 35.5455 10.2832C35.5214 10.0351 35.4933 9.7457 35.2535 9.80492C35.0327 9.85946 35.141 10.387 35.2379 10.8587C35.3198 11.2573 35.3934 11.616 35.2535 11.616C35.1031 11.616 35.0514 11.3478 35.0012 11.0874C34.9495 10.8189 34.8994 10.5588 34.7443 10.6098C34.5928 10.6597 34.6415 11.1052 34.692 11.5663C34.7434 12.0354 34.7965 12.5207 34.6424 12.6222C34.4988 12.7167 34.4677 12.4558 34.4328 12.1631C34.3933 11.8328 34.3491 11.462 34.1331 11.5154C33.9317 11.5651 34.0291 12.0825 34.1298 12.6171C34.2327 13.1635 34.3391 13.7278 34.1331 13.8295C33.9402 13.9248 33.8843 13.4561 33.8249 12.9575C33.7588 12.4032 33.6883 11.8119 33.4202 11.9178C33.1656 12.0185 33.3183 12.6221 33.4711 13.2258C33.6239 13.8295 33.7767 14.4332 33.522 14.5338C33.2673 14.6345 33.2191 14.2065 33.1694 13.7661C33.1199 13.3261 33.0689 12.8737 32.8091 12.924C32.5503 12.9741 32.6755 13.623 32.8036 14.2867C32.9327 14.9559 33.0647 15.6402 32.8091 15.7412C32.5644 15.8379 32.5078 15.3539 32.4473 14.8361C32.3818 14.2761 32.3117 13.6767 31.9943 13.7289C31.6752 13.7815 31.8004 14.6021 31.9204 15.3888C32.0303 16.1086 32.1358 16.7999 31.8924 16.848C31.6491 16.8961 31.5685 16.3927 31.4841 15.865C31.3918 15.2883 31.2948 14.6825 30.9758 14.7351C30.6726 14.785 30.8206 15.5283 30.9722 16.2892C31.1261 17.0622 31.2837 17.8534 30.9758 17.9548C30.6816 18.0517 30.5998 17.379 30.5146 16.6777C30.4228 15.9223 30.327 15.1338 29.9572 15.2382C29.5876 15.3425 29.7381 16.3391 29.8836 17.3029C30.0188 18.1983 30.1497 19.0652 29.8554 19.1622C29.5801 19.2528 29.5322 18.6084 29.4788 17.8912C29.4137 17.0163 29.3406 16.0331 28.8369 16.1437C28.3531 16.2499 28.5218 17.3932 28.6843 18.4935C28.8296 19.478 28.9698 20.4282 28.6332 20.5708C28.306 20.7093 28.2148 19.9791 28.1134 19.1677C27.9938 18.211 27.8602 17.1416 27.3091 17.2505C26.7726 17.3565 26.9991 18.5512 27.2146 19.6877C27.4082 20.7088 27.5929 21.6829 27.2073 21.7782C26.8099 21.8763 26.679 20.9456 26.5429 19.9779C26.3998 18.961 26.251 17.9032 25.7813 17.9548C25.3098 18.0065 25.5121 19.2566 25.7088 20.472C25.8945 21.6191 26.0751 22.7355 25.6795 22.7843C25.2946 22.8318 25.2051 21.8913 25.1105 20.8963C25.0049 19.7851 24.8928 18.606 24.3554 18.6591C23.8164 18.7123 23.9906 20.2312 24.1532 21.6494C24.2979 22.9107 24.4334 24.0923 24.0499 24.0923C23.6836 24.0923 23.5849 23.2385 23.4762 22.2985C23.343 21.1472 23.1949 19.8665 22.5221 19.8665C21.8595 19.8665 22.1548 21.4339 22.4343 22.9172C22.6704 24.1699 22.8952 25.3627 22.5221 25.5009C22.2052 25.6183 22.0097 24.6948 21.7885 23.6497C21.5028 22.2995 21.174 20.7464 20.4851 20.9732C20.0359 21.1211 20.3432 22.8144 20.6384 24.4409C20.9182 25.9826 21.1871 27.4643 20.7906 27.5132C20.4518 27.5551 20.2731 26.5268 20.0663 25.3367C19.8033 23.8231 19.4948 22.0478 18.7536 21.8788C18.0315 21.7142 18.4605 23.7937 18.8677 25.7677C19.2071 27.4135 19.5315 28.9858 19.161 29.1231C18.8872 29.2245 18.5865 28.1145 18.2442 26.851C17.787 25.1629 17.2555 23.2009 16.6147 23.4886C16.1776 23.6849 16.5843 25.6448 16.9862 27.5818C17.3886 29.5209 17.7863 31.4372 17.3277 31.5379C16.9031 31.6311 16.5221 30.2129 16.1141 28.6936C15.6412 26.9332 15.1319 25.0371 14.4759 25.1991C13.7326 25.3826 14.5335 28.3938 15.1838 30.8389C15.6029 32.4147 15.9595 33.7555 15.7999 33.9526C15.4858 34.3407 14.141 37.5428 13.4959 39.0789C13.3047 39.5341 13.175 39.8429 13.1518 39.8889Z" fill="url(#paint0_linear_3137_224)"/>
<defs>
<linearGradient id="paint0_linear_3137_224" x1="36.4" y1="9.2" x2="13.1" y2="40.6" gradientUnits="userSpaceOnUse">
<stop stop-color="#5AB11D"/>
<stop offset="1" stop-color="#1AA48F"/>
</linearGradient>
</defs>
</svg>
